HIERARCHY
ROOT Hips
{
  OFFSET 0.000000 0.000000 0.000000
  CHANNELS 6 Xposition Yposition Zposition Xrotation Yrotation Zrotation
  JOINT Spine
  {
    OFFSET 0.000000 10.000000 0.000000
    CHANNELS 3 Xrotation Yrotation Zrotation
    JOINT Chest
    {
      OFFSET 0.000000 15.000000 0.000000
      CHANNELS 3 Xrotation Yrotation Zrotation
      JOINT Neck
      {
        OFFSET 0.000000 15.000000 0.000000
        CHANNELS 3 Xrotation Yrotation Zrotation
        JOINT Head
        {
          OFFSET 0.000000 10.000000 0.000000
          CHANNELS 3 Xrotation Yrotation Zrotation
          End Site
          {
            OFFSET 0.0 5.0 2.0
          }
        }
      }
      JOINT LeftShoulder
      {
        OFFSET 20.000000 5.000000 0.000000
        CHANNELS 3 Xrotation Yrotation Zrotation
        JOINT LeftArm
        {
          OFFSET 15.000000 0.000000 0.000000
          CHANNELS 3 Xrotation Yrotation Zrotation
          JOINT LeftForeArm
          {
            OFFSET 25.000000 0.000000 0.000000
            CHANNELS 3 Xrotation Yrotation Zrotation
            JOINT LeftHand
            {
              OFFSET 20.000000 0.000000 0.000000
              CHANNELS 3 Xrotation Yrotation Zrotation
              End Site
              {
                OFFSET -3.0 0.0 2.0
              }
            }
          }
        }
      }
      JOINT RightShoulder
      {
        OFFSET -20.000000 5.000000 0.000000
        CHANNELS 3 Xrotation Yrotation Zrotation
        JOINT RightArm
        {
          OFFSET -15.000000 0.000000 0.000000
          CHANNELS 3 Xrotation Yrotation Zrotation
          JOINT RightForeArm
          {
            OFFSET -25.000000 0.000000 0.000000
            CHANNELS 3 Xrotation Yrotation Zrotation
            JOINT RightHand
            {
              OFFSET -20.000000 0.000000 0.000000
              CHANNELS 3 Xrotation Yrotation Zrotation
              End Site
              {
                OFFSET 3.0 0.0 2.0
              }
            }
          }
        }
      }
    }
  }
  JOINT LeftUpLeg
  {
    OFFSET 10.000000 -10.000000 0.000000
    CHANNELS 3 Xrotation Yrotation Zrotation
    JOINT LeftLeg
    {
      OFFSET 0.000000 -45.000000 0.000000
      CHANNELS 3 Xrotation Yrotation Zrotation
      JOINT LeftFoot
      {
        OFFSET 0.000000 -45.000000 0.000000
        CHANNELS 3 Xrotation Yrotation Zrotation
        JOINT LeftToeBase
        {
          OFFSET 0.000000 0.000000 10.000000
          CHANNELS 3 Xrotation Yrotation Zrotation
          End Site
          {
            OFFSET 0.0 -1.0 3.0
          }
        }
      }
    }
  }
  JOINT RightUpLeg
  {
    OFFSET -10.000000 -10.000000 0.000000
    CHANNELS 3 Xrotation Yrotation Zrotation
    JOINT RightLeg
    {
      OFFSET 0.000000 -45.000000 0.000000
      CHANNELS 3 Xrotation Yrotation Zrotation
      JOINT RightFoot
      {
        OFFSET 0.000000 -45.000000 0.000000
        CHANNELS 3 Xrotation Yrotation Zrotation
        JOINT RightToeBase
        {
          OFFSET 0.000000 0.000000 10.000000
          CHANNELS 3 Xrotation Yrotation Zrotation
          End Site
          {
            OFFSET 0.0 -1.0 3.0
          }
        }
      }
    }
  }
}
MOTION
Frames: 5
Frame Time: 0.033333
4.178513 0.309153 36.668233 35.779335 26.086781 -71.960020 -45.801150 -29.212065 -63.344800 -45.801150 -29.212065 -63.344800 -61.052287 -13.039325 -21.947259 2.768036 -2.065409 73.512544 5.576827 -8.071903 -68.079287 1.402395 -1.732809 -90.448619 -58.305048 21.154429 -140.360196 -58.305048 21.154429 -140.360196 0.026444 0.032040 81.933318 -13.341686 -16.555109 77.685298 -116.643319 -50.392550 147.623762 -116.643319 -50.392550 147.623762 2.938500 -0.047155 1.814764 -41.073154 1.269961 3.427302 88.168043 -11.633900 -11.328928 55.923947 3.108656 1.707303 -1.251945 0.041008 3.916412 -21.571684 0.095815 0.379384 35.607719 -9.765137 -3.049955 25.429731 -16.788834 -3.597372
4.610836 0.313500 40.104411 40.068408 27.123146 -68.167041 -45.527602 -29.161797 -63.597320 -45.527602 -29.161797 -63.597320 -61.335712 -12.869683 -21.545872 2.664401 -1.983446 73.386893 3.990670 -5.858256 -66.711771 -1.990453 1.510725 -92.448239 -68.659776 22.664258 -145.596393 -68.659776 22.664258 -145.596393 0.018914 0.022014 81.718892 -13.693484 -17.202495 76.968292 -117.466078 -50.588949 147.975583 -117.466078 -50.588949 147.975583 2.899130 -0.049780 1.972497 -40.685121 1.388382 3.751097 88.038106 -12.032674 -11.669402 55.208374 2.524394 1.318086 0.463114 -0.019067 4.045582 -18.898756 0.019360 0.057044 34.171147 -10.654751 -3.276579 23.307512 -18.091783 -3.738433
5.002260 0.317455 43.207984 43.099369 27.709251 -65.394250 -45.287954 -29.118191 -63.818736 -45.287954 -29.118191 -63.818736 -61.651742 -12.749280 -21.212706 2.562493 -1.910092 73.463838 2.298464 -3.407504 -65.613473 -5.505479 4.762991 -94.368611 -78.288568 24.047404 -149.913528 -78.288568 24.047404 -149.913528 -0.060344 -0.071538 81.520239 -14.024902 -17.821411 76.281049 -118.454227 -50.668252 148.506585 -118.454227 -50.668252 148.506585 2.839063 -0.050979 2.074827 -40.438722 1.405993 3.813491 88.332516 -12.335928 -12.052587 54.034482 2.290098 1.156848 1.461378 -0.054104 4.228825 -17.821855 -0.063944 -0.373489 33.167934 -10.569141 -3.189498 21.709915 -17.807799 -3.524852
5.281785 0.321003 45.438713 45.535646 28.119768 -63.136095 -45.169809 -29.096550 -63.927829 -45.169809 -29.096550 -63.927829 -61.944100 -12.678389 -20.974633 2.411252 -1.807048 73.762362 0.638156 -0.912476 -64.848552 -9.051833 7.889380 -96.100402 -85.408923 25.242397 -152.485031 -85.408923 25.242397 -152.485031 -0.238969 -0.280477 81.355507 -14.299801 -18.355611 75.678535 -119.805081 -50.725284 149.260508 -119.805081 -50.725284 149.260508 2.745357 -0.050672 2.132260 -40.256916 1.321312 3.591146 88.810110 -12.259431 -12.084477 52.626804 2.943311 1.417209 1.092944 -0.039151 4.428589 -18.215434 -0.162242 -0.929457 32.410346 -9.727617 -2.883082 20.396863 -16.266847 -3.081456
5.508118 0.324457 47.309056 47.956198 28.692570 -60.965254 -45.179255 -29.098102 -63.919028 -45.179255 -29.098102 -63.919028 -62.155063 -12.642407 -20.830622 2.271912 -1.721726 74.265797 -0.738640 1.217691 -64.331992 -11.995394 10.368513 -97.547913 -89.996862 26.207501 -153.759644 -89.996862 26.207501 -153.759644 -0.517552 -0.605913 81.220462 -14.489236 -18.757868 75.179825 -121.700665 -50.777910 150.324731 -121.700665 -50.777910 150.324731 2.650269 -0.050651 2.198389 -39.850377 1.197276 3.272178 89.789281 -12.024513 -12.052456 50.909610 3.961317 1.838894 0.083185 0.001935 4.624067 -18.859646 -0.281253 -1.587899 31.577466 -8.526489 -2.467692 18.940908 -14.093485 -2.517614
